<?xml version="1.0" standalone="no"?>
<!DOCTYPE svg PUBLIC "-//W3C//DTD SVG 20010904//EN"
 "http://www.w3.org/TR/2001/REC-SVG-20010904/DTD/svg10.dtd">
<svg version="1.0" xmlns="http://www.w3.org/2000/svg"
 width="300.000000pt" height="237.000000pt" viewBox="0 0 300.000000 237.000000"
 preserveAspectRatio="xMidYMid meet">
<metadata>
Created by potrace 1.10, written by Peter Selinger 2001-2011
</metadata>
<g transform="translate(0.000000,237.000000) scale(0.100000,-0.100000)"
fill="#000000" stroke="none">
<path d="M805 2141 l-170 -117 -3 -382 c-1 -210 -6 -382 -10 -382 -4 0 -42 11
-84 24 l-78 24 -174 -121 -175 -122 -6 -60 c-3 -33 -4 -161 -3 -285 l3 -225
65 -22 c36 -12 281 -87 545 -167 264 -80 586 -177 715 -216 129 -39 244 -69
256 -67 11 2 174 109 362 238 l341 234 1 103 c0 56 1 102 3 102 1 0 38 -11 81
-25 43 -13 84 -21 90 -18 6 4 86 58 179 121 l167 115 0 287 0 287 -102 30
c-88 26 -430 130 -844 256 l-111 34 -164 -114 c-90 -62 -166 -113 -169 -113
-3 0 -5 122 -5 272 l0 272 -25 7 c-14 3 -131 39 -260 78 -129 39 -239 71 -245
71 -5 -1 -86 -54 -180 -119z m430 24 c266 -80 249 -75 244 -79 -2 -2 -49 -34
-104 -71 -55 -37 -126 -86 -158 -108 l-57 -40 -245 74 c-135 40 -245 76 -245
79 2 13 317 218 330 215 8 -2 114 -34 235 -70z m265 -358 l0 -264 -137 -94
c-75 -52 -149 -102 -165 -112 l-28 -19 0 265 0 266 150 102 c83 56 153 106
156 110 20 32 24 -15 24 -254z m-641 129 c97 -30 202 -62 234 -71 l57 -16 0
-268 0 -268 -250 75 -250 76 0 269 c0 245 1 269 16 263 9 -4 96 -31 193 -60z
m1182 -229 c96 -30 204 -62 242 -73 37 -10 67 -21 67 -24 0 -3 -14 -14 -31
-24 -17 -10 -89 -59 -160 -108 l-129 -89 -197 60 c-109 33 -219 66 -246 73
-26 7 -46 16 -45 20 3 8 309 218 319 218 4 0 85 -24 180 -53z m588 -179 c130
-39 238 -73 241 -76 3 -3 1 -6 -5 -8 -5 -2 -78 -51 -162 -108 l-151 -104 -242
72 c-132 40 -242 75 -243 79 -1 3 59 47 133 97 74 51 142 98 150 106 8 8 21
14 29 14 8 0 121 -32 250 -72z m-874 -77 c110 -34 215 -67 233 -72 l32 -11 0
-267 0 -268 -237 74 c-131 40 -243 73 -250 73 -9 0 -13 66 -15 271 -3 266 -3
270 17 266 11 -3 110 -32 220 -66z m-255 -205 l0 -263 -47 -30 c-27 -17 -101
-67 -165 -112 l-118 -81 0 268 c0 269 0 269 23 280 12 6 83 54 157 106 74 52
138 95 143 95 4 1 7 -118 7 -263z m-680 144 c74 -23 179 -55 233 -71 l97 -30
0 -268 0 -268 -67 22 c-38 12 -150 46 -250 76 l-183 54 0 268 c0 251 1 268 18
263 9 -3 78 -24 152 -46z m2070 -217 l0 -268 -48 -31 c-26 -18 -100 -69 -165
-114 l-117 -81 2 267 3 267 160 113 c88 61 161 113 163 113 1 1 2 -119 2 -266z
m-595 114 l240 -73 5 -268 c5 -263 5 -267 -15 -263 -11 2 -118 34 -238 71
-120 36 -225 66 -233 66 -12 0 -14 41 -14 270 0 149 3 270 8 270 4 0 115 -33
247 -73z m-1743 -29 l78 -23 0 -161 0 -161 -227 68 c-126 38 -234 69 -240 69
-30 0 -6 23 94 91 60 40 128 88 153 106 25 18 49 33 54 33 6 0 45 -10 88 -22z
m-351 -238 c35 -11 145 -44 244 -74 l180 -54 3 -267 c2 -252 1 -267 -15 -263
-10 3 -123 36 -251 74 l-232 69 0 252 c0 138 -3 258 -6 267 -8 21 -1 20 77 -4z
m1593 -140 c110 -33 201 -62 203 -64 6 -6 -309 -219 -322 -219 -14 1 -477 142
-482 147 -2 2 69 53 158 114 l161 110 42 -14 c22 -7 131 -40 240 -74z m-1036
-29 c53 -16 158 -48 232 -70 74 -23 140 -41 147 -41 10 0 13 -56 13 -270 0
-148 -3 -270 -7 -270 -3 0 -56 16 -117 35 -61 19 -169 52 -241 73 l-130 39 -3
267 c-1 146 0 266 3 266 3 0 49 -13 103 -29z m1612 -243 c0 -89 -2 -98 -22
-113 -13 -9 -87 -61 -165 -115 l-143 -99 0 263 0 263 165 -51 165 -50 0 -98z
m-350 -75 l0 -268 -28 -16 c-15 -9 -86 -58 -159 -108 -73 -50 -134 -91 -135
-91 -2 0 -3 119 -3 263 l0 264 124 84 c68 46 140 96 160 111 20 15 37 28 39
28 1 0 2 -120 2 -267z m-553 103 l203 -61 3 -268 c1 -147 0 -267 -2 -267 -3 0
-393 117 -468 141 l-33 11 0 268 0 269 47 -16 c26 -9 138 -44 250 -77z"/>
</g>
</svg>
